<?xml version="1.0" encoding="UTF-8"?><svg id="Layer_1" xmlns="http://www.w3.org/2000/svg" viewBox="0 0 138.07 182.57"><defs><style>.cls-1{fill:#231f20;stroke-width:0px;}</style></defs><path class="cls-1" d="M1.64,55.97c1.4-5.34,2.38-10.37,4.11-15.13.75-2.07,2.79-3.95,4.69-5.28,4.7-3.3,8.15-7.33,9.77-12.98-6.25,2.97-12.22,5.82-18.2,8.67-.28-.23-.57-.47-.85-.7,2.73-4.01,5.31-8.13,8.23-12,4.68-6.21,10.1-11.59,17.13-15.28,11.06-5.79,28.6-4.33,36.87,7.96.82,1.22,2.7,1.99,4.25,2.43,7.3,2.07,13.22,6.02,18.7,13.05-10.1,2.53-19.38,4.85-28.82,7.21,2.49,4.96,5.34,10.63,8.43,16.79-2.57.49-4.61.83-6.62,1.26-14.63,3.09-24.15,14.44-26.28,29.26-3.23,22.49,12.29,45.27,30.91,53.44,21.28,9.33,42.22,19.43,63.29,29.22.76.35,1.71.76,2.09,1.42,2.83,4.95,5.53,9.96,8.75,15.82-19.55-9.04-38.32-17.71-57.1-26.39,1.84,4,.29,6.5-2.12,9.26-2.55,2.93-4.42,6.46-6.99,10.33,9.92,0,18.98-.03,28.04.03,1.46,0,3.17,0,4.3.72,1.18.76,2.53,2.43,2.46,3.63-.07,1.21-1.59,2.66-2.84,3.38-1.07.62-2.65.47-4,.47-23.44.02-46.88.02-70.32,0-2.98,0-6.39.43-6.86-3.84-.3-2.71,2.63-4.94,6.98-4.3,7.97,1.18,12.81-1.78,16.63-8.81,2.39-4.4,4.54-7.73,1.03-12.44-2.28-3.06-4.25-6.52-5.54-10.1-2.31-6.4-8.18-8.64-12.93-12.25C11.06,117.33,1.19,99.56.07,77.16c-.19-3.73.1-7.48.02-11.22-.05-2.6.79-3.85,3.65-3.82,2.22.03,5.77,1.17,5.73-2.71-.04-3.8-3.59-2.87-6.04-3.19-.48-.06-.95-.14-1.8-.26ZM54.99,144.69c1.45,2.65,2.7,5.05,4.05,7.39,3.22,5.59,3.11,6.12-.79,11.11-2.62,3.35-4.94,6.93-7.92,11.14,3.79,0,6.49.18,9.15-.08,1.17-.12,2.63-.88,3.3-1.82,2.46-3.42,4.75-6.96,6.85-10.61.55-.95.56-2.58.15-3.65-2.57-6.72-6.44-12.2-14.8-13.48ZM47.54,20.73c.04-3.11-2.82-5.86-6.01-5.79-2.69.06-5.57,2.9-5.58,5.51,0,3.09,2.86,5.92,5.97,5.88,3.41-.04,5.57-2.2,5.61-5.6Z"/><path class="cls-1" d="M129.02,156.82c-5.25-2.4-10.51-4.77-15.75-7.2-14.44-6.68-28.85-13.42-43.31-20.07-15.21-6.99-25.46-18.3-28.75-34.84-2.49-12.51.37-23.93,11.12-31.97,6.41-4.8,14.16-5.1,21.82-4.14,1.21.15,2.48,1.98,3.22,3.31,10.67,19.4,21.18,38.88,31.87,58.26,6.12,11.09,12.49,22.04,18.74,33.06.53.94.99,1.93,1.48,2.9-.15.23-.29.46-.44.69Z"/><rect class="cls-1" x=".05" y="174.39" width="15.65" height="7.96" rx="3.98" ry="3.98"/><rect class="cls-1" x="22.65" y="174.39" width="83.92" height="628.38145" rx="4.09" ry="4.09"/></svg>
